<mxfile host="65bd71144e">
    <diagram name="Page-1" id="pnZMuoQ3qie84VaM3zIb">
        <mxGraphModel dx="3505" dy="1528" grid="1" gridSize="10" guides="1" tooltips="1" connect="1" arrows="1" fold="1" page="0" pageScale="1" pageWidth="827" pageHeight="1169" background="none" math="0" shadow="1">
            <root>
                <mxCell id="0"/>
                <mxCell id="1" parent="0"/>
                <mxCell id="JKfCuJr97VjBxDRkT8Jm-4" value="" style="edgeStyle=orthogonalEdgeStyle;rounded=0;orthogonalLoop=1;jettySize=auto;html=1;labelBackgroundColor=none;fontColor=default;" parent="1" edge="1">
                    <mxGeometry relative="1" as="geometry">
                        <mxPoint x="59.749999999999886" y="110" as="sourcePoint"/>
                        <mxPoint x="59.75" y="170" as="targetPoint"/>
                        <Array as="points">
                            <mxPoint x="60" y="140"/>
                            <mxPoint x="60" y="140"/>
                        </Array>
                    </mxGeometry>
                </mxCell>
                <mxCell id="JKfCuJr97VjBxDRkT8Jm-2" value="&lt;div&gt;Start&lt;/div&gt;&lt;div&gt;&lt;br&gt;&lt;/div&gt;" style="ellipse;whiteSpace=wrap;html=1;rounded=0;labelBackgroundColor=none;" parent="1" vertex="1">
                    <mxGeometry y="30" width="120" height="80" as="geometry"/>
                </mxCell>
                <mxCell id="JKfCuJr97VjBxDRkT8Jm-8" value="" style="edgeStyle=orthogonalEdgeStyle;rounded=0;orthogonalLoop=1;jettySize=auto;html=1;labelBackgroundColor=none;fontColor=default;" parent="1" source="JKfCuJr97VjBxDRkT8Jm-3" edge="1">
                    <mxGeometry relative="1" as="geometry">
                        <mxPoint x="60" y="320" as="targetPoint"/>
                    </mxGeometry>
                </mxCell>
                <mxCell id="JKfCuJr97VjBxDRkT8Jm-3" value="Input:&lt;br&gt;purchaseAmount,&lt;br&gt;productRating,&lt;br&gt;preferredPurchases" style="shape=parallelogram;perimeter=parallelogramPerimeter;whiteSpace=wrap;html=1;fixedSize=1;rounded=0;labelBackgroundColor=none;" parent="1" vertex="1">
                    <mxGeometry x="-25" y="170" width="170" height="85" as="geometry"/>
                </mxCell>
                <mxCell id="JKfCuJr97VjBxDRkT8Jm-10" value="" style="edgeStyle=orthogonalEdgeStyle;rounded=0;orthogonalLoop=1;jettySize=auto;html=1;labelBackgroundColor=none;fontColor=default;" parent="1" source="JKfCuJr97VjBxDRkT8Jm-7" target="JKfCuJr97VjBxDRkT8Jm-9" edge="1">
                    <mxGeometry relative="1" as="geometry"/>
                </mxCell>
                <mxCell id="JKfCuJr97VjBxDRkT8Jm-16" value="" style="edgeStyle=orthogonalEdgeStyle;orthogonalLoop=1;jettySize=auto;html=1;" parent="1" source="JKfCuJr97VjBxDRkT8Jm-7" target="JKfCuJr97VjBxDRkT8Jm-15" edge="1">
                    <mxGeometry relative="1" as="geometry"/>
                </mxCell>
                <mxCell id="JKfCuJr97VjBxDRkT8Jm-7" value="purchaseAmount &amp;gt;= 0&lt;br&gt;&amp;amp;&amp;amp;&lt;br&gt;purchaseAmount &amp;lt; 500" style="rhombus;whiteSpace=wrap;html=1;rounded=0;labelBackgroundColor=none;" parent="1" vertex="1">
                    <mxGeometry x="-40" y="320" width="200" height="200" as="geometry"/>
                </mxCell>
                <mxCell id="JKfCuJr97VjBxDRkT8Jm-12" value="" style="edgeStyle=orthogonalEdgeStyle;rounded=0;orthogonalLoop=1;jettySize=auto;html=1;labelBackgroundColor=none;fontColor=default;" parent="1" source="JKfCuJr97VjBxDRkT8Jm-9" target="JKfCuJr97VjBxDRkT8Jm-11" edge="1">
                    <mxGeometry relative="1" as="geometry"/>
                </mxCell>
                <mxCell id="JKfCuJr97VjBxDRkT8Jm-18" value="" style="edgeStyle=orthogonalEdgeStyle;orthogonalLoop=1;jettySize=auto;html=1;" parent="1" source="JKfCuJr97VjBxDRkT8Jm-9" target="JKfCuJr97VjBxDRkT8Jm-17" edge="1">
                    <mxGeometry relative="1" as="geometry"/>
                </mxCell>
                <mxCell id="JKfCuJr97VjBxDRkT8Jm-9" value="purchaseAmount &amp;gt;= 500&lt;br&gt;&amp;amp;&amp;amp;&lt;br&gt;purchaseAmount &amp;lt; 1000" style="rhombus;whiteSpace=wrap;html=1;rounded=0;labelBackgroundColor=none;" parent="1" vertex="1">
                    <mxGeometry x="-40" y="600" width="200" height="200" as="geometry"/>
                </mxCell>
                <mxCell id="JKfCuJr97VjBxDRkT8Jm-14" value="" style="edgeStyle=orthogonalEdgeStyle;rounded=0;orthogonalLoop=1;jettySize=auto;html=1;labelBackgroundColor=none;fontColor=default;" parent="1" source="JKfCuJr97VjBxDRkT8Jm-11" edge="1">
                    <mxGeometry relative="1" as="geometry">
                        <mxPoint x="60" y="1152.5" as="targetPoint"/>
                    </mxGeometry>
                </mxCell>
                <mxCell id="JKfCuJr97VjBxDRkT8Jm-20" value="" style="edgeStyle=orthogonalEdgeStyle;orthogonalLoop=1;jettySize=auto;html=1;" parent="1" source="JKfCuJr97VjBxDRkT8Jm-11" target="JKfCuJr97VjBxDRkT8Jm-19" edge="1">
                    <mxGeometry relative="1" as="geometry"/>
                </mxCell>
                <mxCell id="JKfCuJr97VjBxDRkT8Jm-11" value="purchaseAmount &amp;gt;= 1000" style="rhombus;whiteSpace=wrap;html=1;rounded=0;labelBackgroundColor=none;" parent="1" vertex="1">
                    <mxGeometry x="-40" y="880" width="200" height="200" as="geometry"/>
                </mxCell>
                <mxCell id="JKfCuJr97VjBxDRkT8Jm-13" value="points = 0" style="whiteSpace=wrap;html=1;rounded=0;labelBackgroundColor=none;" parent="1" vertex="1">
                    <mxGeometry y="1152.5" width="120" height="60" as="geometry"/>
                </mxCell>
                <mxCell id="JKfCuJr97VjBxDRkT8Jm-15" value="points = 100" style="whiteSpace=wrap;html=1;rounded=0;labelBackgroundColor=none;" parent="1" vertex="1">
                    <mxGeometry x="280" y="390" width="120" height="60" as="geometry"/>
                </mxCell>
                <mxCell id="JKfCuJr97VjBxDRkT8Jm-88" value="" style="edgeStyle=orthogonalEdgeStyle;orthogonalLoop=1;jettySize=auto;html=1;" parent="1" source="JKfCuJr97VjBxDRkT8Jm-17" edge="1">
                    <mxGeometry relative="1" as="geometry">
                        <mxPoint x="630" y="700" as="targetPoint"/>
                    </mxGeometry>
                </mxCell>
                <mxCell id="JKfCuJr97VjBxDRkT8Jm-17" value="points = 300" style="whiteSpace=wrap;html=1;rounded=0;labelBackgroundColor=none;" parent="1" vertex="1">
                    <mxGeometry x="280" y="670" width="120" height="60" as="geometry"/>
                </mxCell>
                <mxCell id="JKfCuJr97VjBxDRkT8Jm-90" value="" style="edgeStyle=orthogonalEdgeStyle;orthogonalLoop=1;jettySize=auto;html=1;" parent="1" source="JKfCuJr97VjBxDRkT8Jm-19" edge="1">
                    <mxGeometry relative="1" as="geometry">
                        <mxPoint x="630" y="980" as="targetPoint"/>
                    </mxGeometry>
                </mxCell>
                <mxCell id="JKfCuJr97VjBxDRkT8Jm-19" value="points = 500" style="whiteSpace=wrap;html=1;rounded=0;labelBackgroundColor=none;" parent="1" vertex="1">
                    <mxGeometry x="280" y="950" width="120" height="60" as="geometry"/>
                </mxCell>
                <mxCell id="JKfCuJr97VjBxDRkT8Jm-35" value="" style="edgeStyle=orthogonalEdgeStyle;orthogonalLoop=1;jettySize=auto;html=1;" parent="1" source="JKfCuJr97VjBxDRkT8Jm-27" target="JKfCuJr97VjBxDRkT8Jm-34" edge="1">
                    <mxGeometry relative="1" as="geometry"/>
                </mxCell>
                <mxCell id="JKfCuJr97VjBxDRkT8Jm-39" value="" style="edgeStyle=orthogonalEdgeStyle;orthogonalLoop=1;jettySize=auto;html=1;" parent="1" source="JKfCuJr97VjBxDRkT8Jm-27" edge="1">
                    <mxGeometry relative="1" as="geometry">
                        <mxPoint x="900" y="600" as="targetPoint"/>
                    </mxGeometry>
                </mxCell>
                <mxCell id="JKfCuJr97VjBxDRkT8Jm-27" value="productRating == &#39;Y&#39;&lt;br&gt;||&lt;br&gt;productRating == &#39;y&#39;" style="rhombus;whiteSpace=wrap;html=1;rounded=0;labelBackgroundColor=none;" parent="1" vertex="1">
                    <mxGeometry x="800" y="320" width="200" height="200" as="geometry"/>
                </mxCell>
                <mxCell id="JKfCuJr97VjBxDRkT8Jm-46" value="" style="edgeStyle=orthogonalEdgeStyle;orthogonalLoop=1;jettySize=auto;html=1;" parent="1" source="JKfCuJr97VjBxDRkT8Jm-34" edge="1">
                    <mxGeometry relative="1" as="geometry">
                        <mxPoint x="1180" y="669.9999999999995" as="targetPoint"/>
                    </mxGeometry>
                </mxCell>
                <mxCell id="JKfCuJr97VjBxDRkT8Jm-48" value="" style="edgeStyle=orthogonalEdgeStyle;orthogonalLoop=1;jettySize=auto;html=1;" parent="1" source="JKfCuJr97VjBxDRkT8Jm-34" edge="1">
                    <mxGeometry relative="1" as="geometry">
                        <mxPoint x="1400" y="420" as="targetPoint"/>
                    </mxGeometry>
                </mxCell>
                <mxCell id="JKfCuJr97VjBxDRkT8Jm-34" value="preferredPurchases == &#39;Y&#39;&lt;br&gt;||&lt;br&gt;preferredPurchases == &#39;y&#39;" style="rhombus;whiteSpace=wrap;html=1;rounded=0;labelBackgroundColor=none;" parent="1" vertex="1">
                    <mxGeometry x="1080" y="320" width="200" height="200" as="geometry"/>
                </mxCell>
                <mxCell id="JKfCuJr97VjBxDRkT8Jm-42" value="" style="edgeStyle=orthogonalEdgeStyle;orthogonalLoop=1;jettySize=auto;html=1;" parent="1" source="JKfCuJr97VjBxDRkT8Jm-40" edge="1">
                    <mxGeometry relative="1" as="geometry">
                        <mxPoint x="900" y="880" as="targetPoint"/>
                    </mxGeometry>
                </mxCell>
                <mxCell id="JKfCuJr97VjBxDRkT8Jm-44" value="" style="edgeStyle=orthogonalEdgeStyle;orthogonalLoop=1;jettySize=auto;html=1;" parent="1" source="JKfCuJr97VjBxDRkT8Jm-40" target="JKfCuJr97VjBxDRkT8Jm-43" edge="1">
                    <mxGeometry relative="1" as="geometry"/>
                </mxCell>
                <mxCell id="JKfCuJr97VjBxDRkT8Jm-40" value="preferredPurchases == &#39;Y&#39;&lt;br&gt;||&lt;br&gt;preferredPurchases == &#39;y&#39;" style="rhombus;whiteSpace=wrap;html=1;rounded=0;labelBackgroundColor=none;" parent="1" vertex="1">
                    <mxGeometry x="800" y="600" width="200" height="200" as="geometry"/>
                </mxCell>
                <mxCell id="JKfCuJr97VjBxDRkT8Jm-50" value="" style="edgeStyle=orthogonalEdgeStyle;orthogonalLoop=1;jettySize=auto;html=1;" parent="1" source="JKfCuJr97VjBxDRkT8Jm-41" edge="1">
                    <mxGeometry relative="1" as="geometry">
                        <mxPoint x="900" y="1030" as="targetPoint"/>
                    </mxGeometry>
                </mxCell>
                <mxCell id="JKfCuJr97VjBxDRkT8Jm-41" value="additionalPoints = 0" style="whiteSpace=wrap;html=1;rounded=0;labelBackgroundColor=none;" parent="1" vertex="1">
                    <mxGeometry x="840" y="880" width="120" height="60" as="geometry"/>
                </mxCell>
                <mxCell id="JKfCuJr97VjBxDRkT8Jm-43" value="additionalPoints = 50" style="whiteSpace=wrap;html=1;rounded=0;labelBackgroundColor=none;" parent="1" vertex="1">
                    <mxGeometry x="1120" y="670" width="120" height="60" as="geometry"/>
                </mxCell>
                <mxCell id="JKfCuJr97VjBxDRkT8Jm-47" value="additionalPoints = 100" style="whiteSpace=wrap;html=1;rounded=0;labelBackgroundColor=none;" parent="1" vertex="1">
                    <mxGeometry x="1400" y="390" width="120" height="60" as="geometry"/>
                </mxCell>
                <mxCell id="JKfCuJr97VjBxDRkT8Jm-60" value="" style="edgeStyle=orthogonalEdgeStyle;orthogonalLoop=1;jettySize=auto;html=1;" parent="1" source="JKfCuJr97VjBxDRkT8Jm-49" edge="1">
                    <mxGeometry relative="1" as="geometry">
                        <mxPoint x="900" y="1160" as="targetPoint"/>
                    </mxGeometry>
                </mxCell>
                <mxCell id="JKfCuJr97VjBxDRkT8Jm-49" value="totalPoints = points + additionalPoints" style="whiteSpace=wrap;html=1;rounded=0;labelBackgroundColor=none;" parent="1" vertex="1">
                    <mxGeometry x="840" y="1030" width="120" height="60" as="geometry"/>
                </mxCell>
                <mxCell id="JKfCuJr97VjBxDRkT8Jm-51" value="" style="endArrow=classic;html=1;exitX=0.5;exitY=1;exitDx=0;exitDy=0;rounded=0;curved=0;" parent="1" source="JKfCuJr97VjBxDRkT8Jm-47" edge="1">
                    <mxGeometry width="50" height="50" relative="1" as="geometry">
                        <mxPoint x="1460" y="450" as="sourcePoint"/>
                        <mxPoint x="900" y="980" as="targetPoint"/>
                        <Array as="points">
                            <mxPoint x="1460" y="980"/>
                        </Array>
                    </mxGeometry>
                </mxCell>
                <mxCell id="JKfCuJr97VjBxDRkT8Jm-52" value="" style="endArrow=classic;html=1;exitX=0.5;exitY=1;exitDx=0;exitDy=0;" parent="1" source="JKfCuJr97VjBxDRkT8Jm-43" edge="1">
                    <mxGeometry width="50" height="50" relative="1" as="geometry">
                        <mxPoint x="1230" y="810" as="sourcePoint"/>
                        <mxPoint x="1180" y="980" as="targetPoint"/>
                    </mxGeometry>
                </mxCell>
                <mxCell id="JKfCuJr97VjBxDRkT8Jm-63" value="" style="edgeStyle=orthogonalEdgeStyle;orthogonalLoop=1;jettySize=auto;html=1;" parent="1" source="JKfCuJr97VjBxDRkT8Jm-61" edge="1">
                    <mxGeometry relative="1" as="geometry">
                        <mxPoint x="900" y="1420" as="targetPoint"/>
                    </mxGeometry>
                </mxCell>
                <mxCell id="JKfCuJr97VjBxDRkT8Jm-65" value="" style="edgeStyle=orthogonalEdgeStyle;orthogonalLoop=1;jettySize=auto;html=1;" parent="1" source="JKfCuJr97VjBxDRkT8Jm-61" target="JKfCuJr97VjBxDRkT8Jm-64" edge="1">
                    <mxGeometry relative="1" as="geometry"/>
                </mxCell>
                <mxCell id="JKfCuJr97VjBxDRkT8Jm-61" value="purchaseAmount &amp;lt;= 0" style="rhombus;whiteSpace=wrap;html=1;rounded=0;labelBackgroundColor=none;" parent="1" vertex="1">
                    <mxGeometry x="800" y="1160" width="200" height="200" as="geometry"/>
                </mxCell>
                <mxCell id="JKfCuJr97VjBxDRkT8Jm-67" value="" style="edgeStyle=orthogonalEdgeStyle;orthogonalLoop=1;jettySize=auto;html=1;entryX=0.503;entryY=-0.029;entryDx=0;entryDy=0;entryPerimeter=0;" parent="1" source="JKfCuJr97VjBxDRkT8Jm-62" target="JKfCuJr97VjBxDRkT8Jm-68" edge="1">
                    <mxGeometry relative="1" as="geometry">
                        <mxPoint x="900" y="1610" as="targetPoint"/>
                    </mxGeometry>
                </mxCell>
                <mxCell id="JKfCuJr97VjBxDRkT8Jm-62" value="Output:&lt;br&gt;purchaseAmount,&lt;br&gt;points,&lt;br&gt;additionalPoints,&lt;br&gt;totalPoints" style="shape=parallelogram;perimeter=parallelogramPerimeter;whiteSpace=wrap;html=1;fixedSize=1;rounded=0;labelBackgroundColor=none;" parent="1" vertex="1">
                    <mxGeometry x="800" y="1420" width="200" height="100" as="geometry"/>
                </mxCell>
                <mxCell id="JKfCuJr97VjBxDRkT8Jm-64" value="Display:&lt;br&gt;&quot;Invalid purchase amount!&quot;" style="shape=parallelogram;perimeter=parallelogramPerimeter;whiteSpace=wrap;html=1;fixedSize=1;rounded=0;labelBackgroundColor=none;" parent="1" vertex="1">
                    <mxGeometry x="1130" y="1215" width="180" height="90" as="geometry"/>
                </mxCell>
                <mxCell id="JKfCuJr97VjBxDRkT8Jm-68" value="Stop" style="ellipse;whiteSpace=wrap;html=1;" parent="1" vertex="1">
                    <mxGeometry x="840" y="1610" width="120" height="80" as="geometry"/>
                </mxCell>
                <mxCell id="JKfCuJr97VjBxDRkT8Jm-69" value="" style="endArrow=classic;html=1;exitX=0.5;exitY=1;exitDx=0;exitDy=0;rounded=0;curved=0;" parent="1" source="JKfCuJr97VjBxDRkT8Jm-64" edge="1">
                    <mxGeometry width="50" height="50" relative="1" as="geometry">
                        <mxPoint x="950" y="1680" as="sourcePoint"/>
                        <mxPoint x="900" y="1560" as="targetPoint"/>
                        <Array as="points">
                            <mxPoint x="1220" y="1560"/>
                        </Array>
                    </mxGeometry>
                </mxCell>
                <mxCell id="JKfCuJr97VjBxDRkT8Jm-85" value="" style="endArrow=classic;html=1;exitX=1;exitY=0.5;exitDx=0;exitDy=0;entryX=0;entryY=0.5;entryDx=0;entryDy=0;rounded=0;curved=0;" parent="1" source="JKfCuJr97VjBxDRkT8Jm-13" target="JKfCuJr97VjBxDRkT8Jm-27" edge="1">
                    <mxGeometry width="50" height="50" relative="1" as="geometry">
                        <mxPoint x="650" y="982.5" as="sourcePoint"/>
                        <mxPoint x="700" y="932.5" as="targetPoint"/>
                        <Array as="points">
                            <mxPoint x="630" y="1182.5"/>
                            <mxPoint x="630" y="420.5"/>
                        </Array>
                    </mxGeometry>
                </mxCell>
                <mxCell id="JKfCuJr97VjBxDRkT8Jm-86" value="" style="endArrow=classic;html=1;exitX=1;exitY=0.5;exitDx=0;exitDy=0;" parent="1" source="JKfCuJr97VjBxDRkT8Jm-15" edge="1">
                    <mxGeometry width="50" height="50" relative="1" as="geometry">
                        <mxPoint x="650" y="712.5" as="sourcePoint"/>
                        <mxPoint x="630" y="420.5" as="targetPoint"/>
                    </mxGeometry>
                </mxCell>
                <mxCell id="JKfCuJr97VjBxDRkT8Jm-91" value="True" style="text;html=1;align=center;verticalAlign=middle;whiteSpace=wrap;rounded=0;" parent="1" vertex="1">
                    <mxGeometry x="180" y="390" width="60" height="30" as="geometry"/>
                </mxCell>
                <mxCell id="JKfCuJr97VjBxDRkT8Jm-92" value="True" style="text;html=1;align=center;verticalAlign=middle;whiteSpace=wrap;rounded=0;" parent="1" vertex="1">
                    <mxGeometry x="180" y="670" width="60" height="30" as="geometry"/>
                </mxCell>
                <mxCell id="JKfCuJr97VjBxDRkT8Jm-93" value="True" style="text;html=1;align=center;verticalAlign=middle;whiteSpace=wrap;rounded=0;" parent="1" vertex="1">
                    <mxGeometry x="180" y="950" width="60" height="30" as="geometry"/>
                </mxCell>
                <mxCell id="JKfCuJr97VjBxDRkT8Jm-94" value="False" style="text;html=1;align=center;verticalAlign=middle;whiteSpace=wrap;rounded=0;" parent="1" vertex="1">
                    <mxGeometry x="-40" y="542.5" width="60" height="30" as="geometry"/>
                </mxCell>
                <mxCell id="JKfCuJr97VjBxDRkT8Jm-95" value="False" style="text;html=1;align=center;verticalAlign=middle;whiteSpace=wrap;rounded=0;" parent="1" vertex="1">
                    <mxGeometry x="-40" y="822.5" width="60" height="30" as="geometry"/>
                </mxCell>
                <mxCell id="JKfCuJr97VjBxDRkT8Jm-96" value="False" style="text;html=1;align=center;verticalAlign=middle;whiteSpace=wrap;rounded=0;" parent="1" vertex="1">
                    <mxGeometry x="-40" y="1102.5" width="60" height="30" as="geometry"/>
                </mxCell>
                <mxCell id="JKfCuJr97VjBxDRkT8Jm-99" value="True" style="text;html=1;align=center;verticalAlign=middle;whiteSpace=wrap;rounded=0;" parent="1" vertex="1">
                    <mxGeometry x="1010" y="390" width="60" height="30" as="geometry"/>
                </mxCell>
                <mxCell id="JKfCuJr97VjBxDRkT8Jm-100" value="True" style="text;html=1;align=center;verticalAlign=middle;whiteSpace=wrap;rounded=0;" parent="1" vertex="1">
                    <mxGeometry x="1310" y="390" width="60" height="30" as="geometry"/>
                </mxCell>
                <mxCell id="JKfCuJr97VjBxDRkT8Jm-101" value="True" style="text;html=1;align=center;verticalAlign=middle;whiteSpace=wrap;rounded=0;" parent="1" vertex="1">
                    <mxGeometry x="1030" y="670" width="60" height="30" as="geometry"/>
                </mxCell>
                <mxCell id="JKfCuJr97VjBxDRkT8Jm-102" value="False" style="text;html=1;align=center;verticalAlign=middle;whiteSpace=wrap;rounded=0;" parent="1" vertex="1">
                    <mxGeometry x="800" y="542.5" width="60" height="30" as="geometry"/>
                </mxCell>
                <mxCell id="JKfCuJr97VjBxDRkT8Jm-103" value="False" style="text;html=1;align=center;verticalAlign=middle;whiteSpace=wrap;rounded=0;" parent="1" vertex="1">
                    <mxGeometry x="800" y="822.5" width="60" height="30" as="geometry"/>
                </mxCell>
                <mxCell id="JKfCuJr97VjBxDRkT8Jm-104" value="True" style="text;html=1;align=center;verticalAlign=middle;whiteSpace=wrap;rounded=0;" parent="1" vertex="1">
                    <mxGeometry x="1030" y="1232.5" width="60" height="30" as="geometry"/>
                </mxCell>
            </root>
        </mxGraphModel>
    </diagram>
</mxfile>